<?xml version="1.0" standalone="no"?>
<!DOCTYPE svg PUBLIC "-//W3C//DTD SVG 20010904//EN"
 "http://www.w3.org/TR/2001/REC-SVG-20010904/DTD/svg10.dtd">
<svg version="1.0" xmlns="http://www.w3.org/2000/svg"
 width="1080.000000pt" height="1080.000000pt" viewBox="0 0 1080.000000 1080.000000"
 preserveAspectRatio="xMidYMid meet">
<metadata>
Created by potrace 1.14, written by Peter Selinger 2001-2017
</metadata>
<g transform="translate(0.000000,1080.000000) scale(0.100000,-0.100000)"
fill="#000000" stroke="none">
<path d="M0 5400 l0 -3710 5400 0 5400 0 0 3710 0 3710 -5400 0 -5400 0 0
-3710z m5603 2844 c100 -64 198 -127 217 -139 19 -13 125 -80 235 -151 110
-70 331 -210 490 -312 160 -102 439 -279 620 -395 182 -115 359 -229 395 -252
59 -39 246 -158 432 -276 40 -25 312 -198 603 -384 292 -186 703 -448 915
-583 212 -134 388 -248 393 -251 4 -4 -14 -21 -40 -38 -27 -16 -160 -102 -298
-190 -137 -87 -338 -215 -445 -283 -107 -68 -292 -186 -410 -261 -118 -76
-246 -158 -285 -182 -38 -24 -111 -71 -162 -103 -51 -33 -149 -95 -218 -139
-69 -44 -165 -105 -213 -136 -128 -83 -197 -127 -507 -324 -154 -98 -307 -195
-340 -217 -33 -21 -172 -110 -310 -197 -137 -88 -475 -303 -749 -478 -274
-175 -502 -319 -506 -321 -4 -2 -140 81 -301 184 -162 104 -390 249 -506 323
-117 75 -347 221 -510 326 -164 104 -440 280 -613 390 -173 111 -385 246 -470
300 -85 54 -184 117 -220 140 -234 150 -348 223 -650 415 -124 78 -241 153
-260 165 -35 23 -717 458 -883 563 l-88 56 128 82 c70 45 160 102 198 127 39
24 185 118 325 207 140 89 323 206 405 258 83 52 196 125 252 161 56 36 157
101 225 144 68 43 240 153 383 244 242 154 378 241 1055 673 140 90 288 184
328 209 97 61 988 630 1100 703 48 31 91 57 95 57 5 1 90 -51 190 -115z"/>
<path d="M5250 7384 c-184 -22 -373 -67 -511 -120 -452 -174 -805 -496 -1024
-933 l-37 -74 34 7 c204 37 752 52 1003 27 616 -60 1133 -204 1651 -460 313
-154 645 -367 871 -558 l52 -44 8 28 c4 15 8 125 7 243 -1 255 -18 371 -88
582 -253 771 -951 1287 -1761 1303 -93 2 -186 1 -205 -1z m798 -1274 c24 0 25
-1 7 -20 -12 -13 -15 -27 -11 -45 7 -26 6 -26 -19 -9 -24 16 -27 16 -47 -2
-21 -19 -21 -19 -14 10 6 24 3 33 -16 48 l-23 18 31 0 c24 0 33 5 38 23 l7 22
11 -22 c7 -15 20 -23 36 -23z"/>
<path d="M4176 6251 c-3 -4 -3 -45 1 -90 l6 -81 49 0 c65 0 98 30 98 90 0 60
-33 90 -99 90 -27 0 -52 -4 -55 -9z m120 -46 c10 -16 14 -34 9 -54 -5 -25 -13
-32 -41 -37 -54 -10 -64 -1 -64 54 0 58 3 62 46 62 25 0 38 -7 50 -25z"/>
<path d="M4410 6170 l0 -91 75 3 c41 2 75 7 75 13 0 6 -28 12 -62 15 -55 4
-63 8 -63 25 0 17 8 20 53 23 67 4 66 26 -1 30 -39 3 -47 6 -47 23 0 17 7 19
60 19 33 0 60 4 60 10 0 6 -6 10 -12 11 -7 0 -41 2 -75 5 l-63 6 0 -92z"/>
<path d="M3973 6243 c-31 -4 -33 -7 -33 -42 0 -68 12 -131 25 -131 8 0 12 12
11 33 -1 31 0 32 39 32 36 0 40 -3 49 -33 9 -34 33 -39 28 -6 -3 20 -4 61 -1
103 2 44 -28 55 -118 44z m84 -39 c8 -21 -5 -30 -49 -37 -37 -6 -38 -5 -38 24
0 27 2 29 40 29 28 0 43 -5 47 -16z"/>
<path d="M4646 6198 c-9 -75 -7 -128 3 -128 5 0 12 23 16 52 8 55 18 50 29
-14 10 -57 24 -55 51 6 14 31 26 56 27 56 2 0 1 -25 0 -55 -5 -68 14 -75 23
-7 3 26 8 63 10 83 4 27 1 38 -11 43 -23 9 -31 1 -49 -54 -9 -28 -20 -50 -25
-50 -4 0 -10 19 -14 41 -15 92 -50 108 -60 27z"/>
<path d="M3731 6194 c-35 -44 -22 -111 26 -133 35 -16 49 -14 79 13 22 18 28
32 27 61 -2 77 -88 115 -132 59z m87 -14 c23 -22 25 -31 16 -68 -8 -27 -44
-38 -73 -22 -15 7 -21 20 -21 43 0 36 8 51 30 60 23 9 25 8 48 -13z"/>
<path d="M5036 6171 c-8 -26 -26 -134 -23 -137 3 -3 106 -24 117 -24 6 0 10 6
10 14 0 9 -18 16 -50 20 -39 5 -50 11 -50 25 0 26 6 29 50 21 29 -5 40 -4 40
5 0 15 -22 25 -56 25 -16 0 -24 6 -24 16 0 14 8 16 55 10 42 -5 55 -3 55 7 0
8 -22 17 -60 23 -51 9 -61 8 -64 -5z"/>
<path d="M5397 6123 c-11 -20 -40 -153 -35 -159 11 -10 28 6 28 26 0 27 12 31
54 19 47 -13 75 -4 87 28 14 37 -5 60 -63 78 -59 17 -65 18 -71 8z m105 -57
c3 -5 4 -16 1 -23 -4 -11 -16 -13 -47 -8 -50 9 -56 14 -46 42 8 20 12 21 47
10 21 -6 41 -15 45 -21z"/>
<path d="M5627 6063 c-7 -11 -47 -143 -47 -154 0 -21 22 -6 31 21 13 35 10 34
55 15 32 -13 36 -18 32 -45 -3 -17 -1 -33 4 -36 10 -7 30 44 22 58 -3 5 3 16
15 24 13 10 21 26 21 45 0 26 -6 33 -42 48 -61 27 -86 33 -91 24z m72 -44 c31
-11 43 -43 19 -51 -23 -8 -89 16 -83 30 3 7 5 18 5 23 0 12 20 11 59 -2z"/>
<path d="M4060 6029 c-163 -10 -467 -52 -480 -65 -5 -5 -19 -63 -32 -129 -32
-171 -32 -504 0 -680 69 -375 247 -713 525 -994 282 -287 613 -457 1047 -538
72 -13 144 -17 300 -17 180 1 222 4 345 28 610 117 1110 508 1372 1071 28 61
59 136 69 168 l18 57 -59 53 c-87 78 -243 197 -379 291 -610 420 -1298 669
-2063 745 -152 16 -499 21 -663 10z m-152 -169 c24 0 24 -1 8 -19 -11 -13 -15
-27 -11 -40 7 -23 -4 -28 -22 -10 -8 8 -17 8 -33 -1 -21 -11 -22 -11 -16 14 5
20 1 28 -16 38 -23 12 -23 12 7 18 22 4 31 12 34 30 l4 25 11 -27 c7 -20 17
-28 34 -28z m2032 -240 c0 -5 7 -10 15 -10 17 0 20 -16 5 -25 -5 -3 -6 -13 -3
-23 6 -15 5 -15 -10 -3 -14 11 -20 11 -34 0 -15 -12 -16 -12 -10 5 4 10 2 25
-4 32 -9 11 -8 14 5 14 9 0 16 5 16 10 0 6 5 10 10 10 6 0 10 -4 10 -10z
m-1213 -180 c25 0 25 -1 9 -19 -10 -11 -14 -25 -9 -37 6 -17 5 -18 -11 -5 -14
12 -21 12 -38 2 -17 -11 -19 -10 -16 7 2 10 -3 26 -11 35 -12 15 -11 17 7 17
12 0 24 9 28 23 l8 22 4 -22 c2 -17 10 -23 29 -23z m725 -230 c21 -1 22 -1 5
-11 -14 -8 -17 -18 -12 -37 6 -23 5 -24 -10 -12 -13 11 -21 11 -36 2 -18 -11
-19 -10 -13 12 4 17 0 27 -13 35 -16 9 -16 10 5 11 16 0 26 7 30 22 l5 22 8
-22 c5 -14 17 -22 31 -22z m-1219 -36 c9 -3 13 -13 10 -24 -3 -12 -11 -17 -21
-13 -24 9 -33 26 -19 35 15 9 12 9 30 2z m-151 -114 c21 0 21 -1 3 -13 -13
-11 -16 -21 -11 -42 7 -28 7 -28 -18 -12 -21 14 -26 14 -36 2 -19 -23 -28 -18
-22 12 3 18 -1 30 -13 40 -18 12 -18 13 3 13 14 0 27 9 34 26 l12 25 13 -25
c8 -16 22 -26 35 -26z m1590 -20 c21 -1 21 -2 5 -11 -13 -7 -15 -17 -10 -37 6
-25 5 -26 -11 -13 -15 12 -21 13 -38 2 -19 -12 -20 -11 -15 10 4 15 0 27 -11
35 -16 12 -15 13 5 14 13 0 24 8 29 22 l7 23 8 -23 c5 -14 17 -22 31 -22z
m-426 0 c10 0 12 -5 7 -12 -4 -7 -6 -22 -4 -33 2 -16 1 -17 -12 -7 -10 9 -17
10 -22 2 -11 -18 -20 -11 -21 20 -1 19 4 30 12 30 8 0 14 6 15 13 0 10 2 10 6
0 2 -7 11 -13 19 -13z m-1404 -150 c22 -1 22 -1 5 -15 -14 -10 -17 -20 -11
-37 6 -21 5 -22 -10 -9 -14 12 -21 12 -38 2 -17 -11 -19 -10 -16 7 2 10 -3 26
-11 35 -12 15 -11 17 7 17 13 0 23 9 28 22 l7 23 8 -23 c5 -14 17 -22 31 -22z
m625 -20 c13 0 13 -3 3 -15 -7 -8 -10 -24 -7 -34 4 -17 2 -18 -14 -8 -15 9
-23 9 -38 0 -16 -10 -18 -9 -14 8 3 10 0 25 -6 33 -9 11 -7 15 9 19 11 3 20
13 21 24 0 16 2 15 16 -4 8 -13 22 -23 30 -23z m873 30 c11 -7 11 -10 2 -10
-7 0 -10 -4 -7 -10 3 -5 -3 -10 -13 -10 -23 0 -37 26 -19 34 18 7 21 7 37 -4z
m1437 -45 c20 0 24 -12 9 -24 -11 -10 -13 -19 -5 -38 l10 -26 -27 17 c-24 17
-27 17 -45 0 -19 -17 -19 -16 -13 14 5 24 2 33 -10 38 -19 7 -22 26 -3 23 26
-3 35 2 41 24 l6 22 13 -25 c7 -14 18 -25 24 -25z m258 -25 c10 0 11 -5 2 -22
-11 -25 -62 -37 -53 -12 3 7 -3 18 -12 23 -16 10 -16 10 1 11 10 0 20 7 24 16
5 15 7 15 15 0 5 -9 15 -16 23 -16z m-1578 -160 c25 0 26 -1 8 -20 -10 -11
-15 -28 -12 -40 6 -23 4 -24 -23 -8 -15 10 -22 10 -32 0 -18 -18 -27 -15 -21
8 3 12 -2 29 -12 40 -18 19 -17 20 8 20 21 0 28 6 34 27 l6 28 10 -28 c6 -20
15 -27 34 -27z m1400 10 c12 0 13 -3 3 -15 -7 -8 -9 -23 -4 -37 6 -20 5 -21
-10 -9 -9 7 -25 11 -36 8 -16 -4 -20 0 -20 19 0 13 -6 24 -12 25 -7 0 -3 4 10
9 12 5 22 17 23 27 0 15 2 15 16 -4 8 -13 22 -23 30 -23z m-2458 -21 c-5 -9
-5 -19 -1 -23 3 -4 -1 -4 -11 0 -9 3 -24 1 -31 -5 -12 -10 -13 -8 -9 9 4 13 0
26 -8 31 -11 7 -10 9 4 9 10 0 20 6 23 14 5 12 8 12 23 -2 12 -11 15 -23 10
-33z m2343 -129 c22 -1 22 -1 5 -15 -14 -10 -17 -20 -11 -37 6 -21 5 -22 -10
-9 -14 12 -21 12 -38 2 -18 -11 -19 -10 -13 9 5 15 1 26 -12 35 -17 14 -17 14
4 15 13 0 24 8 29 22 l7 23 8 -23 c5 -14 17 -22 31 -22z m-2041 -17 c25 7 24
-5 -1 -21 -16 -10 -18 -17 -10 -37 9 -24 9 -25 -13 -10 -21 13 -25 13 -45 -1
-22 -15 -23 -15 -16 12 5 20 2 30 -11 41 -18 12 -18 13 3 13 14 0 27 9 34 26
l12 25 14 -26 c10 -19 19 -25 33 -22z m1686 -43 c13 0 13 -3 3 -15 -7 -8 -9
-22 -6 -31 5 -14 4 -15 -8 -5 -7 6 -22 8 -31 4 -14 -5 -16 -3 -10 7 5 8 1 18
-10 27 -17 12 -17 13 -2 13 10 0 20 7 24 16 5 15 7 15 15 0 5 -9 16 -16 25
-16z m-524 -21 c12 0 16 -3 10 -6 -7 -2 -13 -12 -13 -21 0 -26 -45 -22 -57 6
-9 17 -8 22 2 22 7 0 16 8 20 18 8 16 8 16 12 0 3 -10 14 -18 26 -19z m725
-19 c16 -1 16 -1 0 -11 -9 -5 -15 -15 -12 -22 2 -7 -5 -12 -21 -12 -17 0 -25
6 -25 17 0 9 -6 19 -12 21 -8 4 -7 6 3 6 9 1 20 9 24 19 6 16 7 16 16 0 6 -10
18 -18 27 -18z m-419 -44 c-4 -5 -5 -14 -3 -21 3 -7 -4 -11 -18 -11 -29 1 -40
34 -18 56 13 13 17 13 31 0 9 -8 13 -19 8 -24z m233 -96 c20 0 20 -1 4 -19
-10 -11 -14 -25 -10 -36 6 -15 4 -16 -15 -5 -18 9 -26 9 -39 -2 -14 -11 -15
-11 -9 6 5 12 1 26 -9 37 -16 18 -16 19 3 19 12 0 24 8 28 18 6 16 7 16 16 0
6 -10 19 -18 31 -18z m-379 -50 c20 -1 21 -1 4 -11 -14 -8 -17 -18 -12 -37 6
-23 5 -24 -10 -12 -13 11 -20 11 -37 1 -17 -11 -19 -10 -16 7 2 10 -3 26 -11
35 -12 15 -11 17 7 17 11 0 23 8 27 18 6 16 7 16 16 0 6 -10 20 -18 32 -18z
m368 -150 c10 0 10 -3 2 -11 -6 -6 -9 -17 -7 -23 8 -22 -43 -11 -53 12 -9 17
-8 22 3 22 8 0 14 8 14 18 1 16 1 16 14 0 7 -10 19 -18 27 -18z m-961 -75 c0
-8 -7 -15 -15 -15 -8 0 -15 7 -15 15 0 8 7 15 15 15 8 0 15 -7 15 -15z"/>
<path d="M5845 5945 c-49 -48 -17 -145 48 -145 28 0 77 41 78 67 2 34 -3 58
-17 81 -20 31 -77 30 -109 -3z m85 -15 c23 -23 24 -29 10 -64 -11 -30 -53 -44
-75 -26 -31 26 -4 110 35 110 6 0 19 -9 30 -20z"/>
<path d="M6068 5861 c-43 -39 -45 -92 -4 -128 20 -17 36 -23 52 -19 16 4 23 1
26 -10 2 -11 10 -3 25 24 l21 41 -30 10 c-17 6 -34 8 -37 5 -3 -4 0 -9 7 -11
17 -6 15 -20 -4 -27 -24 -9 -64 20 -64 47 0 28 34 67 58 67 9 0 29 -14 44 -32
l27 -33 1 27 c0 29 -40 68 -71 68 -10 0 -33 -13 -51 -29z"/>
<path d="M6261 5745 c-38 -79 -39 -86 -23 -92 6 -3 12 2 12 10 0 30 26 39 60
22 29 -15 32 -20 27 -51 -8 -49 10 -52 24 -4 7 22 16 40 20 40 5 0 16 11 25
25 15 23 15 27 1 49 -15 21 -86 66 -107 66 -5 0 -22 -29 -39 -65z m89 10 c32
-16 42 -55 15 -55 -16 0 -75 27 -75 34 0 14 14 36 22 36 5 0 22 -7 38 -15z"/>
<path d="M6477 5658 c-13 -24 -31 -57 -40 -74 l-16 -31 66 -36 c59 -33 83 -39
83 -19 0 4 -25 20 -55 37 -30 16 -55 31 -55 33 0 2 5 12 10 23 11 19 11 19 50
-1 22 -11 44 -20 50 -20 17 0 11 18 -7 24 -36 12 -64 41 -57 59 6 15 12 14 59
-13 59 -34 65 -35 65 -17 0 12 -101 77 -120 77 -4 0 -19 -19 -33 -42z"/>
<path d="M6702 5554 c-30 -21 -28 -35 13 -84 40 -48 43 -60 15 -60 -24 0 -63
37 -55 50 4 6 4 10 1 10 -2 0 -11 3 -20 6 -19 7 -21 -23 -3 -46 38 -49 92 -63
121 -31 16 18 16 21 1 50 -8 17 -20 31 -25 31 -16 0 -33 41 -22 52 14 14 51
-8 62 -38 11 -28 30 -32 30 -6 0 21 -46 67 -75 76 -12 3 -30 -1 -43 -10z"/>
<path d="M6896 5425 c-23 -23 -20 -42 14 -85 34 -43 38 -60 13 -60 -26 0 -40
12 -52 43 -6 15 -17 27 -26 27 -25 0 -17 -30 19 -66 41 -41 89 -47 106 -13 12
21 0 49 -41 94 -11 13 -15 25 -10 34 12 18 49 -2 61 -35 11 -28 30 -32 30 -6
-1 48 -84 97 -114 67z"/>
<path d="M7094 5280 c-31 -12 -64 -59 -64 -90 0 -15 10 -36 25 -50 20 -18 31
-22 62 -17 48 8 73 38 73 87 0 30 -6 43 -26 59 -29 23 -38 24 -70 11z m74 -68
c7 -49 -75 -82 -101 -41 -15 24 9 77 36 82 29 5 61 -15 65 -41z"/>
</g>
</svg>
